<svg width="42" height="55" viewBox="0 0 42 55" fill="none" xmlns="http://www.w3.org/2000/svg">
<g clip-path="url(#clip0_4725_217772)">
<path d="M42 20.6785C42 30.0915 29.2031 46.8498 23.5922 53.7641C22.2469 55.412 19.7531 55.412 18.4078 53.7641C12.7969 46.8498 0 30.0915 0 20.6785C0 9.26225 9.40625 0 21 0C32.5938 0 42 9.26225 42 20.6785Z" fill="url(#paint0_linear_4725_217772)"/>
<mask id="mask0_4725_217772" style="mask-type:alpha" maskUnits="userSpaceOnUse" x="9" y="13" width="24" height="15">
<path d="M9.17969 13.98H32.1325V27.8686H9.17969V13.98Z" fill="#D9D9D9"/>
</mask>
<g mask="url(#mask0_4725_217772)">
<path fill-rule="evenodd" clip-rule="evenodd" d="M40.5534 25.3468C42.2171 25.4974 43.2741 25.3468 45.0899 24.591C47.8866 23.3819 49.8529 20.4332 49.3997 18.5428C49.1731 17.5604 48.0386 17.2578 47.0562 17.1818C46.1498 17.1057 45.1659 17.0311 43.6542 17.1057L40.5548 25.3468H40.5534ZM9.17969 27.8409C9.17969 27.8409 18.9412 17.1789 20.4441 15.5151C21.9471 13.8514 24.8227 13.907 24.8227 13.907H29.365L32.1325 27.8409L35.6397 16.9537L35.1865 14.0809C41.6879 14.0809 47.2828 14.3075 49.929 14.3836C52.3485 14.3836 55.3718 14.5341 56.3543 15.8952C57.3367 17.3309 57.4887 19.1452 56.0517 21.7168C54.6906 24.3629 52.423 25.9506 49.5503 26.933C47.5854 27.6889 44.4846 27.9915 41.6879 27.8409H24.1487L22.2584 19.0721L14.7746 27.8409H9.17969Z" fill="#231916"/>
</g>
<path fill-rule="evenodd" clip-rule="evenodd" d="M20.4225 21.26H33.22L15.54 26.98L20.4225 21.26Z" fill="white"/>
</g>
<defs>
<linearGradient id="paint0_linear_4725_217772" x1="43.4875" y1="1.66135e-06" x2="-23.8919" y2="19.2639" gradientUnits="userSpaceOnUse">
<stop stop-color="#FFDD00"/>
<stop offset="0.379159" stop-color="#FEDF89"/>
<stop offset="1" stop-color="#F79009"/>
</linearGradient>
<clipPath id="clip0_4725_217772">
<rect width="42" height="55" fill="white"/>
</clipPath>
</defs>
</svg>
